<svg width="24" height="20" viewBox="0 0 24 20" fill="none" xmlns="http://www.w3.org/2000/svg">
<path d="M1.5 3.242C2.8275 2.687 4.731 2.0885 6.582 1.9025C8.577 1.7015 10.269 1.997 11.25 3.0305V17.6495C9.8475 16.8545 8.07 16.745 6.4305 16.91C4.6605 17.09 2.8755 17.6015 1.5 18.1265V3.242ZM12.75 3.0305C13.731 1.997 15.423 1.7015 17.418 1.9025C19.269 2.0885 21.1725 2.687 22.5 3.242V18.1265C21.123 17.6015 19.3395 17.0885 17.5695 16.9115C15.9285 16.745 14.1525 16.853 12.75 17.6495V3.0305ZM12 1.6745C10.5225 0.404004 8.3805 0.215004 6.4305 0.410004C4.1595 0.639504 1.8675 1.418 0.4395 2.0675C0.308474 2.1271 0.197363 2.22313 0.119432 2.34415C0.0415 2.46517 3.98571e-05 2.60606 0 2.75L0 19.25C3.4743e-05 19.3755 0.0315557 19.499 0.0916756 19.6091C0.151796 19.7193 0.238593 19.8126 0.344116 19.8805C0.44964 19.9484 0.570517 19.9887 0.695675 19.9978C0.820833 20.0069 0.946271 19.9845 1.0605 19.9325C2.3835 19.3325 4.515 18.611 6.5805 18.4025C8.694 18.1895 10.4655 18.533 11.415 19.718C11.4853 19.8056 11.5743 19.8763 11.6756 19.9249C11.7768 19.9735 11.8877 19.9987 12 19.9987C12.1123 19.9987 12.2232 19.9735 12.3244 19.9249C12.4257 19.8763 12.5147 19.8056 12.585 19.718C13.5345 18.533 15.306 18.1895 17.418 18.4025C19.485 18.611 21.618 19.3325 22.9395 19.9325C23.0537 19.9845 23.1792 20.0069 23.3043 19.9978C23.4295 19.9887 23.5504 19.9484 23.6559 19.8805C23.7614 19.8126 23.8482 19.7193 23.9083 19.6091C23.9684 19.499 24 19.3755 24 19.25V2.75C24 2.60606 23.9585 2.46517 23.8806 2.34415C23.8026 2.22313 23.6915 2.1271 23.5605 2.0675C22.1325 1.418 19.8405 0.639504 17.5695 0.410004C15.6195 0.213504 13.4775 0.404004 12 1.6745Z" fill="#09B451"/>
</svg>
