<svg width="40" height="40" viewBox="0 0 40 40" fill="none" xmlns="http://www.w3.org/2000/svg">
<rect width="40" height="40" rx="20" fill="#09B451"/>
<g clip-path="url(#clip0_0_315)">
<path d="M18.5427 31.91C16.4022 31.6325 14.1987 30.7145 12.5937 29.4297C8.98023 26.5467 7.33998 21.992 8.27748 17.4687C8.67948 15.5157 9.72648 13.4607 11.0667 11.9802C12.054 10.8691 13.2446 9.95697 14.5745 9.29297C16.34 8.39822 18.0275 7.99622 20.0195 7.99622C21.449 7.99622 22.598 8.18372 23.9142 8.63297C25.6434 9.2261 27.2144 10.2062 28.5074 11.4985C29.8004 12.7908 30.7812 14.3613 31.3752 16.0902C32.0787 18.1527 32.207 20.348 31.7577 22.5237C31.3985 24.2427 30.4722 26.1762 29.3322 27.5742C28.8635 28.1525 27.785 29.1837 27.2187 29.6015C25.5247 30.8596 23.5324 31.6552 21.4377 31.91C20.8205 31.988 19.1405 31.9842 18.5435 31.91H18.5427ZM21.8127 30.9065C24.7365 30.4164 27.3458 28.7851 29.0667 26.3712C31.094 23.5235 31.637 19.703 30.4925 16.3715C30.2232 15.59 29.555 14.2857 29.0667 13.598C28.5237 12.8285 27.1797 11.4807 26.4065 10.9377C25.6565 10.4067 24.3792 9.76172 23.5077 9.47672C21.9346 8.95407 20.2641 8.79157 18.6198 9.00122C16.9754 9.21087 15.3991 9.78732 14.0075 10.688C12.6981 11.5481 11.5788 12.6673 10.7187 13.9767C9.81831 15.3676 9.24198 16.9431 9.03233 18.5867C8.82267 20.2303 8.98506 21.9001 9.50748 23.4725C9.79623 24.3432 10.4412 25.625 10.9685 26.375C11.5152 27.1445 12.8592 28.4922 13.6287 29.0352C14.3202 29.5197 15.6207 30.1872 16.4022 30.461C18.1417 31.0519 20 31.205 21.8127 30.9065ZM17.6562 26.8827C17.0955 26.7982 16.5575 26.6015 16.0745 26.3045C15.641 26.027 12.3672 22.82 12.2075 22.5192C12.0237 22.1757 12.344 21.5502 12.8015 21.359L13.016 21.269L12.356 20.597C11.993 20.2257 11.6487 19.8312 11.594 19.7217C11.465 19.472 11.4612 18.9365 11.582 18.698C11.633 18.6005 11.7537 18.452 11.8475 18.3695C12.008 18.2367 12.023 18.1895 12.008 17.8535C11.9885 17.5565 12.0155 17.4395 12.1445 17.2167C12.332 16.8965 12.719 16.6812 13.0977 16.6775C13.3085 16.6775 13.3632 16.6505 13.4532 16.4937C13.688 16.0835 14.3592 15.935 14.8715 16.1855L15.149 16.3182L15.2855 16.1855C15.473 16.0137 15.848 15.8615 16.094 15.8615C16.586 15.8615 17.2812 16.4277 17.2812 16.826C17.2812 17.3022 16.8477 17.3847 16.418 16.9902C16.133 16.7247 15.9882 16.697 15.8712 16.8845C15.8127 16.9745 15.953 17.1425 16.793 17.99C17.633 18.8337 17.7852 19.0137 17.7852 19.1735C17.7786 19.2959 17.7265 19.4115 17.6391 19.4975C17.5517 19.5835 17.4353 19.6338 17.3127 19.6385C17.1605 19.6385 16.9107 19.4195 15.758 18.2712C14.582 17.099 14.3675 16.9115 14.2737 16.9707C14.0195 17.1312 14.1057 17.2482 15.4805 18.6267C16.2267 19.3767 16.8402 20.0405 16.8402 20.1035C16.8402 20.2325 16.7232 20.471 16.6257 20.5332C16.5458 20.5683 16.4587 20.5845 16.3715 20.5805C16.211 20.5842 15.965 20.3615 14.657 19.0572C13.3445 17.7522 13.1097 17.5415 13.016 17.6C12.758 17.7642 12.8442 17.8775 14.3405 19.3812C15.1572 20.198 15.8405 20.9285 15.86 21.0065C15.9027 21.1475 15.809 21.3935 15.6845 21.479C15.6019 21.5141 15.5124 21.5302 15.4227 21.5262C15.2622 21.5262 15.0597 21.3507 13.9775 20.2685C12.9342 19.2252 12.692 19.0107 12.5592 19.0227C12.1842 19.0655 12.317 19.2335 14.2542 21.1752C15.9342 22.859 16.1487 23.0975 16.1487 23.273C16.1504 23.3374 16.1359 23.4012 16.1066 23.4586C16.0772 23.516 16.034 23.5651 15.9807 23.6015C15.68 23.84 15.563 23.7852 14.8047 23.051C14.4177 22.6797 14.0195 22.3205 13.9137 22.2537C13.7225 22.1367 13.238 22.0857 13.148 22.1795C13.1165 22.2065 13.8312 22.961 14.7342 23.855C16.238 25.343 16.4097 25.496 16.8515 25.7067C17.2584 25.9094 17.7066 26.0155 18.1612 26.0168C18.6158 26.0181 19.0646 25.9145 19.4727 25.7142C20.7342 25.1127 21.434 23.6517 21.0897 22.3272C20.918 21.6672 20.7027 21.3507 19.8357 20.456C18.836 19.4322 18.605 19.151 18.359 18.659C18.0852 18.1085 17.9682 17.573 17.9682 16.9047C17.9682 16.1817 18.0425 15.854 18.3627 15.1782C18.6672 14.534 19.304 13.8582 19.9332 13.5102C21.1677 12.8225 22.793 12.881 23.972 13.6512C24.2067 13.8035 25.0542 14.6007 26.1087 15.659C27.6755 17.2295 27.8547 17.4327 27.8547 17.612C27.8547 18.038 27.5067 18.5105 27.1205 18.608C26.9757 18.647 27.0035 18.686 27.6597 19.3542C28.0422 19.7412 28.3977 20.159 28.4525 20.288C28.6362 20.7297 28.5537 21.1587 28.2177 21.5105C28.046 21.6905 28.0227 21.7527 28.0182 22.112C28.0145 22.4285 27.9792 22.5612 27.854 22.7412C27.7551 22.8876 27.6226 23.0083 27.4676 23.0933C27.3126 23.1782 27.1396 23.2249 26.963 23.2295C26.7207 23.2295 26.6742 23.2527 26.5527 23.4365C26.279 23.8587 25.568 24.0065 25.1075 23.7335L24.8772 23.597L24.713 23.7575C24.35 24.1055 23.7635 24.152 23.3187 23.867C22.9595 23.6405 22.694 23.324 22.694 23.1245C22.694 22.949 22.9482 22.6595 23.1042 22.6595C23.2527 22.6595 23.4522 22.7765 23.6787 22.988C23.9052 23.2025 24.101 23.2025 24.1317 22.9842C24.1475 22.8672 23.96 22.6445 23.2017 21.8825C22.4045 21.0777 22.2522 20.894 22.2522 20.738C22.2504 20.6509 22.2665 20.5643 22.2995 20.4837C22.3857 20.3547 22.628 20.2647 22.7757 20.3037C22.8537 20.3232 23.5137 20.933 24.2367 21.6552C24.9635 22.382 25.6002 22.9752 25.6587 22.9752C25.8192 22.9752 25.9242 22.8147 25.85 22.6782C25.8147 22.616 25.2012 21.9867 24.4902 21.2757C23.3772 20.1665 23.1972 19.9595 23.1972 19.7952C23.1936 19.7068 23.2097 19.6186 23.2445 19.5372C23.3112 19.4397 23.5452 19.3227 23.678 19.3227C23.7365 19.3227 24.4707 20.006 25.3107 20.8422C26.8497 22.3737 26.963 22.4592 27.1235 22.2057C27.182 22.112 26.9712 21.8735 25.6662 20.5647C24.3185 19.2132 24.1392 19.01 24.1392 18.8345C24.1392 18.7137 24.194 18.5885 24.2802 18.5105C24.5652 18.2412 24.6515 18.296 26.0382 19.6745C27.3507 20.9832 27.4677 21.0687 27.6282 20.819C27.6867 20.7252 27.4212 20.4365 25.7922 18.803C24.0185 17.0217 23.8902 16.877 23.8902 16.67C23.8902 16.3572 24.0702 16.2087 24.4175 16.2327C24.4797 16.2365 24.8547 16.553 25.2417 16.9317C25.6325 17.3105 26.054 17.666 26.1792 17.7207C26.4252 17.822 26.7102 17.8377 26.8317 17.7597C26.9487 17.6855 23.7065 14.4942 23.285 14.2715C22.9236 14.0764 22.5261 13.9574 22.117 13.9217C21.7078 13.886 21.2957 13.9344 20.906 14.064C20.5163 14.1935 20.1572 14.4015 19.8509 14.675C19.5445 14.9485 19.2974 15.2819 19.1247 15.6545C18.9215 16.088 18.8945 16.217 18.8667 16.7757C18.8435 17.303 18.863 17.4672 18.9762 17.8032C19.1795 18.401 19.355 18.647 20.2655 19.577C21.2502 20.585 21.4377 20.8152 21.6875 21.3545C22.391 22.8545 22.094 24.5892 20.9337 25.745C20.051 26.6315 18.848 27.0455 17.6562 26.882V26.8827Z" fill="white"/>
</g>
<defs>
<clipPath id="clip0_0_315">
<rect width="24" height="24" fill="white" transform="translate(8 8)"/>
</clipPath>
</defs>
</svg>
