<svg width="14" height="18" viewBox="0 0 14 18" fill="none" xmlns="http://www.w3.org/2000/svg">
<path fill-rule="evenodd" clip-rule="evenodd" d="M1.06249 15.25L10.4375 9.00003L1.06249 2.75003C0.939376 2.66795 0.833632 2.56243 0.751299 2.43949C0.668965 2.31654 0.611653 2.17859 0.582635 2.0335C0.553617 1.88841 0.553462 1.73902 0.582177 1.59387C0.610891 1.44872 0.667914 1.31064 0.74999 1.18753C0.832067 1.06441 0.937588 0.958669 1.06053 0.876335C1.18347 0.794002 1.32143 0.73669 1.46652 0.707672C1.61161 0.678653 1.761 0.678497 1.90615 0.707211C2.0513 0.735926 2.18938 0.79295 2.31249 0.875026L12.94 7.96003C13.1112 8.07418 13.2516 8.22883 13.3486 8.41025C13.4457 8.59168 13.4965 8.79426 13.4965 9.00003C13.4965 9.20579 13.4457 9.40838 13.3486 9.5898C13.2516 9.77122 13.1112 9.92587 12.94 10.04L2.31249 17.125C2.18938 17.2071 2.0513 17.2641 1.90615 17.2928C1.761 17.3216 1.61161 17.3214 1.46652 17.2924C1.32143 17.2634 1.18347 17.2061 1.06053 17.1237C0.937588 17.0414 0.832067 16.9356 0.74999 16.8125C0.667914 16.6894 0.610891 16.5513 0.582177 16.4062C0.553462 16.261 0.553617 16.1116 0.582635 15.9666C0.611653 15.8215 0.668965 15.6835 0.751299 15.5606C0.833632 15.4376 0.939376 15.3321 1.06249 15.25Z" fill="#09B451"/>
</svg>
