<svg width="14" height="18" viewBox="0 0 14 18" fill="none" xmlns="http://www.w3.org/2000/svg">
<path fill-rule="evenodd" clip-rule="evenodd" d="M12.9375 15.25L3.56249 9.00003L12.9375 2.75003C13.0606 2.66795 13.1664 2.56243 13.2487 2.43949C13.331 2.31654 13.3883 2.17859 13.4173 2.0335C13.4464 1.88841 13.4465 1.73902 13.4178 1.59387C13.3891 1.44872 13.3321 1.31064 13.25 1.18753C13.1679 1.06441 13.0624 0.958669 12.9395 0.876335C12.8165 0.794002 12.6786 0.73669 12.5335 0.707672C12.3884 0.678653 12.239 0.678497 12.0938 0.707211C11.9487 0.735926 11.8106 0.79295 11.6875 0.875026L1.05999 7.96003C0.888797 8.07418 0.748427 8.22883 0.651343 8.41025C0.554259 8.59168 0.503464 8.79426 0.503464 9.00003C0.503464 9.20579 0.554259 9.40838 0.651343 9.5898C0.748427 9.77122 0.888797 9.92587 1.05999 10.04L11.6875 17.125C11.8106 17.2071 11.9487 17.2641 12.0938 17.2928C12.239 17.3216 12.3884 17.3214 12.5335 17.2924C12.6786 17.2634 12.8165 17.2061 12.9395 17.1237C13.0624 17.0414 13.1679 16.9356 13.25 16.8125C13.3321 16.6894 13.3891 16.5513 13.4178 16.4062C13.4465 16.261 13.4464 16.1116 13.4173 15.9666C13.3883 15.8215 13.331 15.6835 13.2487 15.5606C13.1664 15.4376 13.0606 15.3321 12.9375 15.25Z" fill="#09B451"/>
</svg>
