<svg width="18" height="18" viewBox="0 0 18 18" fill="none" xmlns="http://www.w3.org/2000/svg">
<path d="M5 5V2C5 1.46957 5.21071 0.960859 5.58579 0.585786C5.96086 0.210714 6.46957 0 7 0H11C11.5304 0 12.0391 0.210714 12.4142 0.585786C12.7893 0.960859 13 1.46957 13 2V5H16C16.5304 5 17.0391 5.21071 17.4142 5.58579C17.7893 5.96086 18 6.46957 18 7V16C18 16.5304 17.7893 17.0391 17.4142 17.4142C17.0391 17.7893 16.5304 18 16 18H2C1.46957 18 0.960859 17.7893 0.585786 17.4142C0.210714 17.0391 0 16.5304 0 16V7C0 6.46957 0.210714 5.96086 0.585786 5.58579C0.960859 5.21071 1.46957 5 2 5H5ZM2 7V16H16V7H12.998V10H11V7H7V10H5V7H2ZM7 5H11V2H7V5Z" fill="#09B451"/>
</svg>
