<svg width="14" height="12" viewBox="0 0 14 12" fill="none" xmlns="http://www.w3.org/2000/svg">
<path d="M4.99999 0C4.11594 0 3.26809 0.351189 2.64297 0.976311C2.01785 1.60143 1.66666 2.44928 1.66666 3.33333C1.66666 4.21739 2.01785 5.06523 2.64297 5.69036C3.26809 6.31548 4.11594 6.66667 4.99999 6.66667C5.88405 6.66667 6.7319 6.31548 7.35702 5.69036C7.98214 5.06523 8.33333 4.21739 8.33333 3.33333C8.33333 2.44928 7.98214 1.60143 7.35702 0.976311C6.7319 0.351189 5.88405 0 4.99999 0ZM2.99999 3.33333C2.99999 2.8029 3.21071 2.29419 3.58578 1.91912C3.96085 1.54405 4.46956 1.33333 4.99999 1.33333C5.53043 1.33333 6.03914 1.54405 6.41421 1.91912C6.78928 2.29419 6.99999 2.8029 6.99999 3.33333C6.99999 3.86377 6.78928 4.37247 6.41421 4.74755C6.03914 5.12262 5.53043 5.33333 4.99999 5.33333C4.46956 5.33333 3.96085 5.12262 3.58578 4.74755C3.21071 4.37247 2.99999 3.86377 2.99999 3.33333ZM10.272 3.47867C10.0845 3.38314 9.87708 3.33333 9.66666 3.33333V2C10.0877 2.00003 10.5027 2.09974 10.8778 2.29098C11.2528 2.48222 11.5773 2.75955 11.8246 3.10028C12.0719 3.44101 12.235 3.83545 12.3006 4.25133C12.3662 4.6672 12.3324 5.0927 12.2019 5.49299C12.0714 5.89328 11.848 6.25699 11.55 6.55437C11.252 6.85174 10.8878 7.07432 10.4872 7.2039C10.0866 7.33347 9.66105 7.36636 9.24532 7.29987C8.82959 7.23337 8.43551 7.06939 8.09533 6.82133L8.88066 5.744C9.02934 5.85221 9.1988 5.92849 9.37838 5.96806C9.55797 6.00762 9.7438 6.00961 9.92418 5.9739C10.1046 5.93819 10.2756 5.86555 10.4266 5.76055C10.5776 5.65555 10.7052 5.52046 10.8014 5.36376C10.8976 5.20707 10.9604 5.03216 10.9858 4.85003C11.0112 4.6679 10.9986 4.48248 10.9489 4.30544C10.8992 4.1284 10.8134 3.96356 10.6969 3.82128C10.5804 3.67899 10.4357 3.56235 10.272 3.47867ZM12.332 12C12.3318 11.2932 12.0509 10.6153 11.5511 10.1155C11.0513 9.61571 10.3735 9.33484 9.66666 9.33467V8C10.7275 8.00018 11.7448 8.42166 12.4949 9.17177C13.245 9.92188 13.6665 10.9392 13.6667 12H12.332ZM9.66666 12H8.33333C8.33333 11.1159 7.98214 10.2681 7.35702 9.64298C6.7319 9.01786 5.88405 8.66667 4.99999 8.66667C4.11594 8.66667 3.26809 9.01786 2.64297 9.64298C2.01785 10.2681 1.66666 11.1159 1.66666 12H0.333328C0.333328 10.7623 0.824993 9.57534 1.70016 8.70017C2.57533 7.825 3.76232 7.33333 4.99999 7.33333C6.23767 7.33333 7.42466 7.825 8.29983 8.70017C9.175 9.57534 9.66666 10.7623 9.66666 12Z" fill="#09B451"/>
</svg>
