<svg width="50" height="50" viewBox="0 0 50 50" fill="none" xmlns="http://www.w3.org/2000/svg">
<rect width="50" height="50" rx="25" fill="#DDFFFF"/>
<path d="M21 21V18C21 17.4696 21.2107 16.9609 21.5858 16.5858C21.9609 16.2107 22.4696 16 23 16H27C27.5304 16 28.0391 16.2107 28.4142 16.5858C28.7893 16.9609 29 17.4696 29 18V21H32C32.5304 21 33.0391 21.2107 33.4142 21.5858C33.7893 21.9609 34 22.4696 34 23V32C34 32.5304 33.7893 33.0391 33.4142 33.4142C33.0391 33.7893 32.5304 34 32 34H18C17.4696 34 16.9609 33.7893 16.5858 33.4142C16.2107 33.0391 16 32.5304 16 32V23C16 22.4696 16.2107 21.9609 16.5858 21.5858C16.9609 21.2107 17.4696 21 18 21H21ZM18 23V32H32V23H28.998V26H27V23H23V26H21V23H18ZM23 21H27V18H23V21Z" fill="#09B451"/>
</svg>
