<svg width="16" height="16" viewBox="0 0 16 16" fill="none" xmlns="http://www.w3.org/2000/svg">
<path d="M5.99992 2C5.11586 2 4.26802 2.35119 3.6429 2.97631C3.01777 3.60143 2.66659 4.44928 2.66659 5.33333C2.66659 6.21739 3.01777 7.06523 3.6429 7.69036C4.26802 8.31548 5.11586 8.66667 5.99992 8.66667C6.88397 8.66667 7.73182 8.31548 8.35694 7.69036C8.98206 7.06523 9.33325 6.21739 9.33325 5.33333C9.33325 4.44928 8.98206 3.60143 8.35694 2.97631C7.73182 2.35119 6.88397 2 5.99992 2ZM3.99992 5.33333C3.99992 4.8029 4.21063 4.29419 4.58571 3.91912C4.96078 3.54405 5.46949 3.33333 5.99992 3.33333C6.53035 3.33333 7.03906 3.54405 7.41413 3.91912C7.7892 4.29419 7.99992 4.8029 7.99992 5.33333C7.99992 5.86377 7.7892 6.37247 7.41413 6.74755C7.03906 7.12262 6.53035 7.33333 5.99992 7.33333C5.46949 7.33333 4.96078 7.12262 4.58571 6.74755C4.21063 6.37247 3.99992 5.86377 3.99992 5.33333ZM11.2719 5.47867C11.0844 5.38314 10.877 5.33333 10.6666 5.33333V4C11.0876 4.00003 11.5026 4.09974 11.8777 4.29098C12.2528 4.48222 12.5772 4.75955 12.8245 5.10028C13.0718 5.44101 13.235 5.83545 13.3005 6.25133C13.3661 6.6672 13.3323 7.0927 13.2018 7.49299C13.0714 7.89328 12.848 8.25699 12.5499 8.55437C12.2519 8.85174 11.8877 9.07432 11.4871 9.2039C11.0865 9.33347 10.661 9.36636 10.2452 9.29987C9.82951 9.23337 9.43543 9.06939 9.09525 8.82133L9.88058 7.744C10.0293 7.85221 10.1987 7.92849 10.3783 7.96806C10.5579 8.00762 10.7437 8.00961 10.9241 7.9739C11.1045 7.93819 11.2756 7.86555 11.4265 7.76055C11.5775 7.65555 11.7051 7.52046 11.8013 7.36376C11.8976 7.20707 11.9604 7.03216 11.9857 6.85003C12.0111 6.6679 11.9986 6.48248 11.9489 6.30544C11.8991 6.1284 11.8133 5.96356 11.6968 5.82128C11.5803 5.67899 11.4357 5.56235 11.2719 5.47867ZM13.3319 14C13.3317 13.2932 13.0509 12.6153 12.5511 12.1155C12.0513 11.6157 11.3734 11.3348 10.6666 11.3347V10C11.7274 10.0002 12.7447 10.4217 13.4948 11.1718C14.2449 11.9219 14.6664 12.9392 14.6666 14H13.3319ZM10.6666 14H9.33325C9.33325 13.1159 8.98206 12.2681 8.35694 11.643C7.73182 11.0179 6.88397 10.6667 5.99992 10.6667C5.11586 10.6667 4.26802 11.0179 3.6429 11.643C3.01777 12.2681 2.66659 13.1159 2.66659 14H1.33325C1.33325 12.7623 1.82492 11.5753 2.70009 10.7002C3.57526 9.825 4.76224 9.33333 5.99992 9.33333C7.2376 9.33333 8.42458 9.825 9.29975 10.7002C10.1749 11.5753 10.6666 12.7623 10.6666 14Z" fill="#09B451"/>
</svg>
