<svg width="50" height="50" viewBox="0 0 50 50" fill="none" xmlns="http://www.w3.org/2000/svg">
<rect width="50" height="50" rx="25" fill="#DDFFFF"/>
<g clip-path="url(#clip0_16_576)">
<path d="M14.5 17.242C15.8275 16.687 17.731 16.0885 19.582 15.9025C21.577 15.7015 23.269 15.997 24.25 17.0305V31.6495C22.8475 30.8545 21.07 30.745 19.4305 30.91C17.6605 31.09 15.8755 31.6015 14.5 32.1265V17.242ZM25.75 17.0305C26.731 15.997 28.423 15.7015 30.418 15.9025C32.269 16.0885 34.1725 16.687 35.5 17.242V32.1265C34.123 31.6015 32.3395 31.0885 30.5695 30.9115C28.9285 30.745 27.1525 30.853 25.75 31.6495V17.0305ZM25 15.6745C23.5225 14.404 21.3805 14.215 19.4305 14.41C17.1595 14.6395 14.8675 15.418 13.4395 16.0675C13.3085 16.1271 13.1974 16.2231 13.1194 16.3442C13.0415 16.4652 13 16.6061 13 16.75V33.25C13 33.3755 13.0316 33.499 13.0917 33.6091C13.1518 33.7193 13.2386 33.8126 13.3441 33.8805C13.4496 33.9484 13.5705 33.9887 13.6957 33.9978C13.8208 34.0069 13.9463 33.9845 14.0605 33.9325C15.3835 33.3325 17.515 32.611 19.5805 32.4025C21.694 32.1895 23.4655 32.533 24.415 33.718C24.4853 33.8056 24.5743 33.8763 24.6756 33.9249C24.7768 33.9735 24.8877 33.9987 25 33.9987C25.1123 33.9987 25.2232 33.9735 25.3244 33.9249C25.4257 33.8763 25.5147 33.8056 25.585 33.718C26.5345 32.533 28.306 32.1895 30.418 32.4025C32.485 32.611 34.618 33.3325 35.9395 33.9325C36.0537 33.9845 36.1792 34.0069 36.3043 33.9978C36.4295 33.9887 36.5504 33.9484 36.6559 33.8805C36.7614 33.8126 36.8482 33.7193 36.9083 33.6091C36.9684 33.499 37 33.3755 37 33.25V16.75C37 16.6061 36.9585 16.4652 36.8806 16.3442C36.8026 16.2231 36.6915 16.1271 36.5605 16.0675C35.1325 15.418 32.8405 14.6395 30.5695 14.41C28.6195 14.2135 26.4775 14.404 25 15.6745Z" fill="#09B451"/>
</g>
<defs>
<clipPath id="clip0_16_576">
<rect width="24" height="24" fill="white" transform="translate(13 13)"/>
</clipPath>
</defs>
</svg>
