<svg width="50" height="50" viewBox="0 0 50 50" fill="none" xmlns="http://www.w3.org/2000/svg">
<rect width="50" height="50" rx="25" fill="#DDFFFF"/>
<path d="M35.1485 22.6562H29.1485C29.0454 22.6562 28.961 22.7406 28.961 22.8438V23.9688C28.961 24.0719 29.0454 24.1562 29.1485 24.1562H35.1485C35.2516 24.1562 35.336 24.0719 35.336 23.9688V22.8438C35.336 22.7406 35.2516 22.6562 35.1485 22.6562ZM32.0079 25.8438H29.1485C29.0454 25.8438 28.961 25.9281 28.961 26.0312V27.1562C28.961 27.2594 29.0454 27.3438 29.1485 27.3438H32.0079C32.111 27.3438 32.1954 27.2594 32.1954 27.1562V26.0312C32.1954 25.9281 32.111 25.8438 32.0079 25.8438ZM24.1868 20.5586H23.1719C23.0266 20.5586 22.9094 20.6758 22.9094 20.8211V26.6336C22.9094 26.718 22.9493 26.7953 23.0172 26.8445L26.5071 29.3898C26.6243 29.4742 26.7883 29.4508 26.8727 29.3336L27.475 28.5109V28.5086C27.5594 28.3914 27.5336 28.2273 27.4165 28.143L24.4469 25.9961V20.8211C24.4493 20.6758 24.3297 20.5586 24.1868 20.5586Z" fill="#09B451"/>
<path d="M31.8625 28.7945H30.5078C30.3766 28.7945 30.2524 28.8625 30.182 28.975C29.8844 29.4461 29.5375 29.882 29.1391 30.2805C28.4524 30.9672 27.6531 31.5063 26.7649 31.8813C25.8438 32.2703 24.8664 32.4672 23.8586 32.4672C22.8485 32.4672 21.8711 32.2703 20.9524 31.8813C20.0641 31.5063 19.2649 30.9672 18.5781 30.2805C17.8914 29.5938 17.3524 28.7945 16.9774 27.9063C16.5883 26.9875 16.3914 26.0102 16.3914 25C16.3914 23.9899 16.5883 23.0149 16.9774 22.0938C17.3524 21.2055 17.8914 20.4063 18.5781 19.7196C19.2649 19.0328 20.0641 18.4938 20.9524 18.1188C21.8711 17.7297 22.8508 17.5328 23.8586 17.5328C24.8688 17.5328 25.8461 17.7297 26.7649 18.1188C27.6531 18.4938 28.4524 19.0328 29.1391 19.7196C29.5375 20.118 29.8844 20.5539 30.182 21.025C30.2524 21.1375 30.3766 21.2055 30.5078 21.2055H31.8625C32.0242 21.2055 32.1274 21.0367 32.0547 20.8938C30.5266 17.8539 27.4281 15.8781 23.9688 15.8383C18.9039 15.775 14.6969 19.9211 14.6875 24.9813C14.6781 30.0508 18.7867 34.1641 23.8563 34.1641C27.3602 34.1641 30.5102 32.1813 32.0547 29.1063C32.1274 28.9633 32.0219 28.7945 31.8625 28.7945Z" fill="#09B451"/>
</svg>
