<svg width="16" height="15" viewBox="0 0 16 15" fill="none" xmlns="http://www.w3.org/2000/svg">
<path d="M14.9628 5.20683L10.4997 4.5582L8.5046 0.513474C8.45011 0.402732 8.36046 0.313083 8.24972 0.258591C7.97198 0.121482 7.63448 0.23574 7.49562 0.513474L5.5005 4.5582L1.03741 5.20683C0.914367 5.22441 0.801867 5.28242 0.715734 5.37031C0.611604 5.47734 0.554224 5.62133 0.556202 5.77064C0.558179 5.91995 0.619353 6.06237 0.726281 6.1666L3.95538 9.31484L3.19249 13.7603C3.1746 13.8638 3.18605 13.9701 3.22552 14.0674C3.265 14.1646 3.33094 14.2488 3.41585 14.3105C3.50077 14.3722 3.60127 14.4088 3.70595 14.4163C3.81063 14.4237 3.91531 14.4017 4.00812 14.3527L8.00011 12.2539L11.9921 14.3527C12.1011 14.4107 12.2276 14.4301 12.3489 14.409C12.6548 14.3562 12.8605 14.0662 12.8077 13.7603L12.0448 9.31484L15.2739 6.1666C15.3618 6.08047 15.4198 5.96797 15.4374 5.84492C15.4849 5.5373 15.2704 5.25254 14.9628 5.20683ZM10.686 8.87187L11.3206 12.5686L8.00011 10.8248L4.6796 12.5703L5.31417 8.87363L2.62823 6.25449L6.34073 5.71484L8.00011 2.35215L9.65948 5.71484L13.372 6.25449L10.686 8.87187Z" fill="#09B451"/>
</svg>
