<svg width="382" height="74" viewBox="0 0 382 74" fill="none" xmlns="http://www.w3.org/2000/svg">
<path d="M37.0078 41.4844C37.0078 43.5156 36.5156 45.2812 35.5312 46.7812C34.5469 48.2812 33.1094 49.4375 31.2188 50.25C29.3438 51.0625 27.0625 51.4688 24.375 51.4688C23.1875 51.4688 22.0234 51.3906 20.8828 51.2344C19.7578 51.0781 18.6719 50.8516 17.625 50.5547C16.5938 50.2422 15.6094 49.8594 14.6719 49.4062V42.6562C16.2969 43.375 17.9844 44.0234 19.7344 44.6016C21.4844 45.1797 23.2188 45.4688 24.9375 45.4688C26.125 45.4688 27.0781 45.3125 27.7969 45C28.5312 44.6875 29.0625 44.2578 29.3906 43.7109C29.7188 43.1641 29.8828 42.5391 29.8828 41.8359C29.8828 40.9766 29.5938 40.2422 29.0156 39.6328C28.4375 39.0234 27.6406 38.4531 26.625 37.9219C25.625 37.3906 24.4922 36.8203 23.2266 36.2109C22.4297 35.8359 21.5625 35.3828 20.625 34.8516C19.6875 34.3047 18.7969 33.6406 17.9531 32.8594C17.1094 32.0781 16.4141 31.1328 15.8672 30.0234C15.3359 28.8984 15.0703 27.5547 15.0703 25.9922C15.0703 23.9453 15.5391 22.1953 16.4766 20.7422C17.4141 19.2891 18.75 18.1797 20.4844 17.4141C22.2344 16.6328 24.2969 16.2422 26.6719 16.2422C28.4531 16.2422 30.1484 16.4531 31.7578 16.875C33.3828 17.2812 35.0781 17.875 36.8438 18.6562L34.5 24.3047C32.9219 23.6641 31.5078 23.1719 30.2578 22.8281C29.0078 22.4688 27.7344 22.2891 26.4375 22.2891C25.5312 22.2891 24.7578 22.4375 24.1172 22.7344C23.4766 23.0156 22.9922 23.4219 22.6641 23.9531C22.3359 24.4688 22.1719 25.0703 22.1719 25.7578C22.1719 26.5703 22.4062 27.2578 22.875 27.8203C23.3594 28.3672 24.0781 28.8984 25.0312 29.4141C26 29.9297 27.2031 30.5312 28.6406 31.2188C30.3906 32.0469 31.8828 32.9141 33.1172 33.8203C34.3672 34.7109 35.3281 35.7656 36 36.9844C36.6719 38.1875 37.0078 39.6875 37.0078 41.4844ZM53.6953 45.7734C54.4766 45.7734 55.2344 45.6953 55.9688 45.5391C56.7188 45.3828 57.4609 45.1875 58.1953 44.9531V50.2734C57.4297 50.6172 56.4766 50.8984 55.3359 51.1172C54.2109 51.3516 52.9766 51.4688 51.6328 51.4688C50.0703 51.4688 48.6641 51.2188 47.4141 50.7188C46.1797 50.2031 45.2031 49.3203 44.4844 48.0703C43.7812 46.8047 43.4297 45.0469 43.4297 42.7969V30.1641H40.0078V27.1406L43.9453 24.75L46.0078 19.2188H50.5781V24.7969H57.9141V30.1641H50.5781V42.7969C50.5781 43.7969 50.8594 44.5469 51.4219 45.0469C52 45.5312 52.7578 45.7734 53.6953 45.7734ZM87.5625 24.7969V51H82.0781L81.1172 47.6484H80.7422C80.1797 48.5391 79.4766 49.2656 78.6328 49.8281C77.7891 50.3906 76.8594 50.8047 75.8438 51.0703C74.8281 51.3359 73.7734 51.4688 72.6797 51.4688C70.8047 51.4688 69.1719 51.1406 67.7812 50.4844C66.3906 49.8125 65.3047 48.7734 64.5234 47.3672C63.7578 45.9609 63.375 44.1328 63.375 41.8828V24.7969H70.5234V40.1016C70.5234 41.9766 70.8594 43.3906 71.5312 44.3438C72.2031 45.2969 73.2734 45.7734 74.7422 45.7734C76.1953 45.7734 77.3359 45.4453 78.1641 44.7891C78.9922 44.1172 79.5703 43.1406 79.8984 41.8594C80.2422 40.5625 80.4141 38.9844 80.4141 37.125V24.7969H87.5625ZM103.359 51.4688C100.438 51.4688 98.0547 50.3281 96.2109 48.0469C94.3828 45.75 93.4688 42.3828 93.4688 37.9453C93.4688 33.4609 94.3984 30.0703 96.2578 27.7734C98.1172 25.4609 100.547 24.3047 103.547 24.3047C104.797 24.3047 105.898 24.4766 106.852 24.8203C107.805 25.1641 108.625 25.625 109.312 26.2031C110.016 26.7812 110.609 27.4297 111.094 28.1484H111.328C111.234 27.6484 111.117 26.9141 110.977 25.9453C110.852 24.9609 110.789 23.9531 110.789 22.9219V14.5312H117.961V51H112.477L111.094 47.6016H110.789C110.336 48.3203 109.766 48.9766 109.078 49.5703C108.406 50.1484 107.602 50.6094 106.664 50.9531C105.727 51.2969 104.625 51.4688 103.359 51.4688ZM105.867 45.7734C107.82 45.7734 109.195 45.1953 109.992 44.0391C110.805 42.8672 111.234 41.1094 111.281 38.7656V37.9922C111.281 35.4453 110.891 33.5 110.109 32.1562C109.328 30.7969 107.875 30.1172 105.75 30.1172C104.172 30.1172 102.938 30.7969 102.047 32.1562C101.156 33.5156 100.711 35.4766 100.711 38.0391C100.711 40.6016 101.156 42.5312 102.047 43.8281C102.953 45.125 104.227 45.7734 105.867 45.7734ZM136.242 24.3047C138.664 24.3047 140.75 24.7734 142.5 25.7109C144.25 26.6328 145.602 27.9766 146.555 29.7422C147.508 31.5078 147.984 33.6641 147.984 36.2109V39.6797H131.086C131.164 41.6953 131.766 43.2812 132.891 44.4375C134.031 45.5781 135.609 46.1484 137.625 46.1484C139.297 46.1484 140.828 45.9766 142.219 45.6328C143.609 45.2891 145.039 44.7734 146.508 44.0859V49.6172C145.211 50.2578 143.852 50.7266 142.43 51.0234C141.023 51.3203 139.312 51.4688 137.297 51.4688C134.672 51.4688 132.344 50.9844 130.312 50.0156C128.297 49.0469 126.711 47.5703 125.555 45.5859C124.414 43.6016 123.844 41.1016 123.844 38.0859C123.844 35.0234 124.359 32.4766 125.391 30.4453C126.438 28.3984 127.891 26.8672 129.75 25.8516C131.609 24.8203 133.773 24.3047 136.242 24.3047ZM136.289 29.3906C134.898 29.3906 133.742 29.8359 132.82 30.7266C131.914 31.6172 131.391 33.0156 131.25 34.9219H141.281C141.266 33.8594 141.07 32.9141 140.695 32.0859C140.336 31.2578 139.789 30.6016 139.055 30.1172C138.336 29.6328 137.414 29.3906 136.289 29.3906ZM168.68 24.3047C171.477 24.3047 173.727 25.0703 175.43 26.6016C177.133 28.1172 177.984 30.5547 177.984 33.9141V51H170.836V35.6953C170.836 33.8203 170.492 32.4062 169.805 31.4531C169.133 30.5 168.07 30.0234 166.617 30.0234C164.43 30.0234 162.938 30.7656 162.141 32.25C161.344 33.7344 160.945 35.875 160.945 38.6719V51H153.797V24.7969H159.258L160.219 28.1484H160.617C161.18 27.2422 161.875 26.5078 162.703 25.9453C163.547 25.3828 164.477 24.9688 165.492 24.7031C166.523 24.4375 167.586 24.3047 168.68 24.3047ZM196.383 45.7734C197.164 45.7734 197.922 45.6953 198.656 45.5391C199.406 45.3828 200.148 45.1875 200.883 44.9531V50.2734C200.117 50.6172 199.164 50.8984 198.023 51.1172C196.898 51.3516 195.664 51.4688 194.32 51.4688C192.758 51.4688 191.352 51.2188 190.102 50.7188C188.867 50.2031 187.891 49.3203 187.172 48.0703C186.469 46.8047 186.117 45.0469 186.117 42.7969V30.1641H182.695V27.1406L186.633 24.75L188.695 19.2188H193.266V24.7969H200.602V30.1641H193.266V42.7969C193.266 43.7969 193.547 44.5469 194.109 45.0469C194.688 45.5312 195.445 45.7734 196.383 45.7734ZM224.484 43.2188C224.484 45 224.062 46.5078 223.219 47.7422C222.391 48.9609 221.148 49.8906 219.492 50.5312C217.836 51.1562 215.773 51.4688 213.305 51.4688C211.477 51.4688 209.906 51.3516 208.594 51.1172C207.297 50.8828 205.984 50.4922 204.656 49.9453V44.0391C206.078 44.6797 207.602 45.2109 209.227 45.6328C210.867 46.0391 212.305 46.2422 213.539 46.2422C214.93 46.2422 215.922 46.0391 216.516 45.6328C217.125 45.2109 217.43 44.6641 217.43 43.9922C217.43 43.5547 217.305 43.1641 217.055 42.8203C216.82 42.4609 216.305 42.0625 215.508 41.625C214.711 41.1719 213.461 40.5859 211.758 39.8672C210.117 39.1797 208.766 38.4844 207.703 37.7812C206.656 37.0781 205.875 36.25 205.359 35.2969C204.859 34.3281 204.609 33.1016 204.609 31.6172C204.609 29.1953 205.547 27.375 207.422 26.1562C209.312 24.9219 211.836 24.3047 214.992 24.3047C216.617 24.3047 218.164 24.4688 219.633 24.7969C221.117 25.125 222.641 25.6484 224.203 26.3672L222.047 31.5234C220.75 30.9609 219.523 30.5 218.367 30.1406C217.227 29.7812 216.062 29.6016 214.875 29.6016C213.828 29.6016 213.039 29.7422 212.508 30.0234C211.977 30.3047 211.711 30.7344 211.711 31.3125C211.711 31.7344 211.844 32.1094 212.109 32.4375C212.391 32.7656 212.922 33.1328 213.703 33.5391C214.5 33.9297 215.664 34.4375 217.195 35.0625C218.68 35.6719 219.969 36.3125 221.062 36.9844C222.156 37.6406 223 38.4609 223.594 39.4453C224.188 40.4141 224.484 41.6719 224.484 43.2188Z" fill="#09B451"/>
<path d="M15 71.3309C83 66.1643 196 59.9842 225.5 67.4842" stroke="#09B451" stroke-width="4" stroke-linecap="round"/>
</svg>
