<svg width="16" height="15" viewBox="0 0 16 15" fill="none" xmlns="http://www.w3.org/2000/svg">
<path d="M14.9627 5.20682L10.4996 4.55819L8.50449 0.513459C8.45 0.402716 8.36035 0.313068 8.24961 0.258576C7.97187 0.121466 7.63437 0.235724 7.49551 0.513459L5.50039 4.55819L1.0373 5.20682C0.914257 5.2244 0.801756 5.2824 0.715624 5.37029C0.611494 5.47732 0.554114 5.62131 0.556091 5.77062C0.558069 5.91993 0.619243 6.06235 0.72617 6.16658L3.95527 9.31483L3.19238 13.7603C3.17449 13.8637 3.18593 13.9701 3.22541 14.0673C3.26489 14.1646 3.33083 14.2488 3.41574 14.3105C3.50066 14.3722 3.60116 14.4088 3.70584 14.4163C3.81052 14.4237 3.9152 14.4017 4.00801 14.3527L8 12.2539L11.992 14.3527C12.101 14.4107 12.2275 14.4301 12.3488 14.409C12.6547 14.3562 12.8604 14.0662 12.8076 13.7603L12.0447 9.31483L15.2738 6.16658C15.3617 6.08045 15.4197 5.96795 15.4373 5.8449C15.4848 5.53729 15.2703 5.25252 14.9627 5.20682ZM10.6859 8.87186L11.3205 12.5685L8 10.8248L4.67949 12.5703L5.31406 8.87362L2.62812 6.25447L6.34062 5.71483L8 2.35213L9.65937 5.71483L13.3719 6.25447L10.6859 8.87186Z" fill="#09B451"/>
</svg>
